<svg width="40" height="40" viewBox="0 0 40 40" fill="none" xmlns="http://www.w3.org/2000/svg">
<g clip-path="url(#clip0_32_153)">
<path d="M0 35.9061V8.94207C0 7.88879 0.891616 7.03836 1.99591 7.03836H22.863H27.0593L23.0757 10.838H22.863H3.98364V34.0024H28.2699V29.8439V24.164L32.2536 20.3643V29.8439V35.9061C32.2536 36.9516 31.362 37.8098 30.2577 37.8098H1.99591C0.891616 37.8098 0 36.9594 0 35.9061ZM17.3497 21.3162L13.0961 17.2591C11.9018 16.12 9.96319 16.12 8.76892 17.2591C8.18814 17.813 7.86912 18.5464 7.86912 19.3267C7.86912 20.1069 8.18814 20.8403 8.76892 21.3864L15.182 27.5032C16.3763 28.6424 18.3149 28.6424 19.5092 27.5032L39.1002 8.81724C39.681 8.26329 40 7.52989 40 6.75749C40 5.97728 39.681 5.24388 39.1002 4.68993C37.9059 3.55083 35.9673 3.55083 34.773 4.68993L17.3497 21.3162Z" fill="#F9A63E"/>
</g>
<defs>
<clipPath id="clip0_32_153">
<rect width="40" height="40" fill="white"/>
</clipPath>
</defs>
</svg>
